# xmcd CD database file
#
# Track frame offsets:
#	150
#	15525
#	30405
#	43136
#	56013
#	70372
#	84149
#	99457
#	112552
#	125780
#	140091
#	155865
#	169637
#	181805
#	196721
#	210847
#	224453
#	237651
#
# Disc length: 3344 seconds
#
# Revision: 0
# Processed by: cddbd v1.4PL0 Copyright (c) Steve Scherf et al.
# Submitted via: CDex 1.50
#
DISCID=f40d0e12
DTITLE=Billie Holiday - Vocal Jazz
DYEAR=2001
DGENRE=Jazz
TTITLE0=You're my thrill
TTITLE1=Now or never
TTITLE2=Sugar
TTITLE3=Them there eyes
TTITLE4=Until the real thing comes along
TTITLE5=Twenty four hours a day
TTITLE6=Lover man
TTITLE7=You're so desirable
TTITLE8=Let's dream in the moonlight
TTITLE9=I'll get by
TTITLE10=I can't give your anything but love, baby
TTITLE11=All of me
TTITLE12=He's funny that way
TTITLE13=Fine and mellow
TTITLE14=More than you know
TTITLE15=Night and day
TTITLE16=Somebody's on my mind
TTITLE17=My man
EXTD=YEAR: 2001
EXTT0=
EXTT1=
EXTT2=
EXTT3=
EXTT4=
EXTT5=
EXTT6=
EXTT7=
EXTT8=
EXTT9=
EXTT10=
EXTT11=
EXTT12=
EXTT13=
EXTT14=
EXTT15=
EXTT16=
EXTT17=
PLAYORDER=
